<?xml version="1.0" encoding="UTF-8"?>
<svg width="32px" height="32px" viewBox="0 0 32 32" version="1.1" xmlns="http://www.w3.org/2000/svg" xmlns:xlink="http://www.w3.org/1999/xlink">
    <!-- Generator: Sketch 55 (78076) - https://sketchapp.com -->
    <title>icon/first-aid@1.5x</title>
    <desc>Created with Sketch.</desc>
    <defs>
        <circle id="path-1" cx="16" cy="16" r="16"></circle>
    </defs>
    <g id="Minder-Profile" stroke="none" stroke-width="1" fill="none" fill-rule="evenodd">
        <g transform="translate(-206.000000, -1032.000000)" id="Certificates">
            <g transform="translate(0.000000, 956.000000)">
                <g id="First-Aid" transform="translate(200.000000, 76.000000)">
                    <g id="icon/first-aid" transform="translate(6.000000, 0.000000)">
                        <mask id="mask-2" fill="white">
                            <use xlink:href="#path-1"></use>
                        </mask>
                        <use id="Base" fill="#F4F4F4" xlink:href="#path-1"></use>
                        <path d="M22.4999895,11.6111071 L19.5000035,11.6111071 L19.5000035,9.27776765 C19.5000035,8.8484332 19.1647538,8.5 18.7500158,8.5 L14.2500193,8.5 C13.8352814,8.5 13.5000316,8.8484332 13.5000316,9.27776765 L13.5000316,11.6111071 L10.5000105,11.6111071 C9.67274947,11.6111071 9,12.3095412 9,13.1666424 L9,20.9444282 C9,21.8023315 9.67274947,22.5 10.5000105,22.5 L22.4999895,22.5 C23.3279888,22.5 24,21.8023315 24,20.9444282 L24,13.1666424 C24,12.3095412 23.3279888,11.6111071 22.4999895,11.6111071 Z M15.000007,10.0555353 L17.999993,10.0555353 L17.999993,11.6111071 L15.000007,11.6111071 L15.000007,10.0555353 Z M19.5000035,17.8333212 L17.2500053,17.8333212 L17.2500053,20.1666606 L15.7499947,20.1666606 L15.7499947,17.8333212 L13.4999965,17.8333212 L13.4999965,16.2777494 L15.7499947,16.2777494 L15.7499947,13.94441 L17.2500053,13.94441 L17.2500053,16.2777494 L19.5000035,16.2777494 L19.5000035,17.8333212 L19.5000035,17.8333212 Z" id="Shape" fill="#9B3FD9" fill-rule="nonzero" mask="url(#mask-2)"></path>
                    </g>
                </g>
            </g>
        </g>
    </g>
</svg>