<?xml version="1.0" encoding="UTF-8"?>
<svg width="32px" height="32px" viewBox="0 0 32 32" version="1.1" xmlns="http://www.w3.org/2000/svg" xmlns:xlink="http://www.w3.org/1999/xlink">
    <!-- Generator: Sketch 55 (78076) - https://sketchapp.com -->
    <title>icon/police-check@1.5x</title>
    <desc>Created with Sketch.</desc>
    <defs>
        <circle id="path-1" cx="16" cy="16" r="16"></circle>
    </defs>
    <g id="Minder-Profile" stroke="none" stroke-width="1" fill="none" fill-rule="evenodd">
        <g transform="translate(-292.000000, -1032.000000)" id="Certificates">
            <g transform="translate(0.000000, 956.000000)">
                <g id="Police-Check" transform="translate(275.000000, 76.000000)">
                    <g id="icon/police-check" transform="translate(17.000000, 0.000000)">
                        <mask id="mask-2" fill="white">
                            <use xlink:href="#path-1"></use>
                        </mask>
                        <use id="Base" fill="#F4F4F4" xlink:href="#path-1"></use>
                        <path d="M20.7609375,10.261066 C19.2511875,10.408248 17.705,10.0308208 16.3870625,9.1229553 C16.1485,8.9590149 15.8508125,8.9590149 15.6129375,9.1229553 C14.2943125,10.0308208 12.748125,10.408248 11.238375,10.261066 C10.8403125,10.2224489 10.5,10.5590732 10.5,10.9824037 L10.5,16.8602135 C10.5,20.3852964 12.86225,23.3245656 16,24 C19.13775,23.3245656 21.5,20.3852964 21.5,16.8602135 L21.5,10.9824037 C21.5,10.5590732 21.159,10.2224489 20.7609375,10.261066 Z M19.2113125,13.8218514 L16.6153125,19.3251485 C16.5163125,19.5349922 16.328625,19.680717 16.1106875,19.7186054 C16.07425,19.7244344 16.037125,19.7280775 16.0006875,19.7280775 C15.819875,19.7280775 15.6445625,19.6523006 15.514625,19.5145907 L13.006625,16.857299 C12.8725625,16.7152173 12.8725625,16.4842435 13.006625,16.3421618 L13.4926875,15.8270247 C13.62675,15.684943 13.8446875,15.684943 13.97875,15.8270247 L15.8109375,17.7695362 L17.9806875,13.1704616 C18.06525,12.9904915 18.2721875,12.9176291 18.442,13.0072498 L19.0573125,13.3329447 C19.227125,13.4225655 19.295875,13.6418813 19.2113125,13.8218514 Z" id="Shape" fill="#9B3FD9" fill-rule="nonzero" mask="url(#mask-2)"></path>
                    </g>
                </g>
            </g>
        </g>
    </g>
</svg>