<?xml version="1.0" encoding="UTF-8"?>
<svg width="32px" height="32px" viewBox="0 0 32 32" version="1.1" xmlns="http://www.w3.org/2000/svg" xmlns:xlink="http://www.w3.org/1999/xlink">
    <!-- Generator: Sketch 55 (78076) - https://sketchapp.com -->
    <title>icon/verified-bank@</title>
    <desc>Created with Sketch.</desc>
    <defs>
        <circle id="path-1" cx="16" cy="16" r="16"></circle>
    </defs>
    <g id="Minder-Profile" stroke="none" stroke-width="1" fill="none" fill-rule="evenodd">
        <g transform="translate(-119.000000, -1100.000000)" id="Certificates">
            <g transform="translate(0.000000, 956.000000)">
                <g id="Verified-Bank-Account" transform="translate(97.000000, 144.000000)">
                    <g id="icon/verified-bank" transform="translate(22.000000, 0.000000)">
                        <mask id="mask-2" fill="white">
                            <use xlink:href="#path-1"></use>
                        </mask>
                        <use id="Base" fill="#F4F4F4" xlink:href="#path-1"></use>
                        <g id="credit-card-(1)" mask="url(#mask-2)" fill="#9B3FD9" fill-rule="nonzero">
                            <g transform="translate(7.500000, 7.500000)" id="Combined-Shape">
                                <path d="M13.2542613,4.623672 L13.2542613,4.62694642 L5.22105812,4.62694642 C4.14252621,4.62694642 3.26685296,5.47502167 3.26685296,6.51956224 L3.26685296,9.24715563 C3.26685296,9.47309074 3.02342256,9.62371414 2.81042096,9.53203033 L1.10640816,8.81820637 C0.589118558,8.59554568 0.359212069,8.00942418 0.589118558,7.51171206 L3.54747412,1.08729641 C3.77738061,0.58630987 4.38257563,0.363649185 4.89648425,0.58630987 L13.3455477,4.21436927 C13.5619303,4.3093275 13.4943108,4.623672 13.2542613,4.623672 Z M15.4654208,5.51431474 C16.036806,5.51431474 16.5,5.96291053 16.5,6.51628782 L16.5,13.5235505 C16.5,14.0769278 16.036806,14.5255236 15.4654208,14.5255236 L14.0893628,14.5255236 C14.1231726,14.3290583 14.1400775,14.1293186 14.1400775,13.9263044 C14.1400775,13.6970949 14.1164107,13.4744342 14.0758389,13.255048 L15.1881806,13.255048 L15.1881806,9.90204 L5.4982983,9.90204 L5.4982983,13.2583224 L6.60725901,13.2583224 C6.56668728,13.4777086 6.54302043,13.7003693 6.54302043,13.9295789 C6.54302043,14.132593 6.55992532,14.3323327 6.5937351,14.5287981 L5.21767714,14.5287981 C4.6462919,14.5287981 4.18309794,14.0802023 4.18309794,13.526825 L4.18309794,6.51628782 C4.18309794,5.96291053 4.6462919,5.51431474 5.21767714,5.51431474 L15.4654208,5.51431474 Z M15.1881806,7.83587982 L15.1881806,6.78479041 L5.4982983,6.78479041 L5.4982983,7.83587982 L15.1881806,7.83587982 Z M10.3432395,11.3526089 C11.8105838,11.3526089 13.000688,12.5052054 13.000688,13.9263044 C13.000688,15.3474035 11.8105838,16.5 10.3432395,16.5 C8.8758951,16.5 7.68579092,15.3474035 7.68579092,13.9263044 C7.68579092,12.5052054 8.8758951,11.3526089 10.3432395,11.3526089 Z M11.1073404,14.9413752 C11.4285333,14.5648167 11.3034371,14.0114394 10.8571481,13.7724066 C10.711766,13.6938205 10.563003,13.6348809 10.410859,13.5759413 C10.3229536,13.5399227 10.2418101,13.4973552 10.1674286,13.44169 C10.0220466,13.3303597 10.0524754,13.146992 10.2215243,13.0749548 C10.2688579,13.0553082 10.3195726,13.0487594 10.3702873,13.045485 C10.566384,13.0356617 10.7523378,13.0684059 10.9315296,13.1535409 C11.019435,13.1928339 11.0498638,13.1797363 11.0802926,13.0913269 C11.1141024,12.9996431 11.1411502,12.9014104 11.168198,12.8064522 C11.1884839,12.7409637 11.1648171,12.6983962 11.1005785,12.6722009 C10.9856252,12.6230845 10.867291,12.5903403 10.7455758,12.5706938 C10.5832889,12.5477728 10.5832889,12.5477728 10.5832889,12.3906006 C10.5832889,12.1679399 10.5832889,12.1679399 10.3533824,12.1679399 C10.3229536,12.1679399 10.2891438,12.1679399 10.255334,12.1679399 C10.1471427,12.1712143 10.1302379,12.1875864 10.1268569,12.2923679 C10.1268569,12.3382098 10.1268569,12.3873262 10.1268569,12.4331681 C10.1268569,12.5706938 10.1234759,12.5674194 9.98823679,12.6165357 C9.65690097,12.7344149 9.45066132,12.9505267 9.43037546,13.3008899 C9.41008959,13.6119599 9.5757575,13.8215229 9.83947377,13.9721463 C9.99837973,14.0671046 10.1775715,14.1227697 10.3500014,14.194807 C10.417621,14.2210024 10.4784786,14.2537466 10.5359552,14.2995885 C10.7016231,14.4305654 10.6711943,14.6499517 10.4750976,14.7318122 C10.3702873,14.7776541 10.258715,14.7874774 10.1471427,14.7743797 C9.9713319,14.7547332 9.80566399,14.7088913 9.64675804,14.6303051 C9.55209066,14.5844632 9.52504284,14.5942865 9.49461404,14.6925191 C9.46756621,14.7743797 9.44389937,14.8595147 9.42023252,14.9446496 C9.38642275,15.0592544 9.39994666,15.0854498 9.51151892,15.1378405 C9.65351999,15.203329 9.80566399,15.2393476 9.96118897,15.2622685 C10.0829042,15.2819151 10.0896661,15.2884639 10.0896661,15.4096175 C10.0896661,15.4652827 10.0896661,15.5209479 10.0896661,15.576613 C10.0896661,15.6453759 10.1234759,15.6879434 10.1978574,15.6879434 C10.2823819,15.6912178 10.3669063,15.6912178 10.4514307,15.6879434 C10.5190503,15.6879434 10.5562411,15.6519247 10.5562411,15.5831619 C10.5562411,15.5045758 10.559622,15.4292641 10.5562411,15.3539524 C10.5528601,15.2753662 10.5866699,15.2360732 10.6644323,15.2164266 C10.8402432,15.1705847 10.9923872,15.0789009 11.1073404,14.9413752 Z"></path>
                            </g>
                        </g>
                    </g>
                </g>
            </g>
        </g>
    </g>
</svg>