<?xml version="1.0" encoding="UTF-8"?>
<svg width="32px" height="32px" viewBox="0 0 32 32" version="1.1" xmlns="http://www.w3.org/2000/svg" xmlns:xlink="http://www.w3.org/1999/xlink">
    <!-- Generator: Sketch 55 (78076) - https://sketchapp.com -->
    <title>icon/verified-phone@1.5x</title>
    <desc>Created with Sketch.</desc>
    <defs>
        <circle id="path-1" cx="16" cy="16" r="16"></circle>
    </defs>
    <g id="Minder-Profile" stroke="none" stroke-width="1" fill="none" fill-rule="evenodd">
        <g transform="translate(-206.000000, -1100.000000)" id="Certificates">
            <g transform="translate(0.000000, 956.000000)">
                <g id="Verified-Phone-Number" transform="translate(182.000000, 144.000000)">
                    <g id="icon/verified-phone" transform="translate(24.000000, 0.000000)">
                        <mask id="mask-2" fill="white">
                            <use xlink:href="#path-1"></use>
                        </mask>
                        <use id="Base" fill="#F4F4F4" xlink:href="#path-1"></use>
                        <path d="M20.9556388,8.00472159 C20.5930323,7.66811648 20.1631519,7.5 19.6666499,7.5 L12.3334504,7.5 C11.8367979,7.5 11.4071684,7.66825604 11.0443111,8.00472159 C10.6814537,8.34100107 10.5,8.73952179 10.5,9.19991162 L10.5,22.7999953 C10.5,23.2603387 10.6814537,23.6588129 11.0443111,23.9951854 C11.4071684,24.3316974 11.8367979,24.5 12.3334504,24.5 L19.6666499,24.5 C20.1631018,24.5 20.5930323,24.3315579 20.9555886,23.9951854 C21.3184961,23.6588129 21.5,23.2603387 21.5,22.7999953 L21.5,9.19991162 C21.5,8.73952179 21.3187469,8.34118714 20.9556388,8.00472159 Z M14.8542377,9.19991162 L17.1461134,9.19991162 C17.2989219,9.19991162 17.3751254,9.27075871 17.3751254,9.4124529 C17.3751254,9.55410057 17.2988717,9.6250407 17.1461134,9.6250407 L14.8542377,9.6250407 C14.7014795,9.6250407 14.6250753,9.55410057 14.6250753,9.4124529 C14.6250251,9.27075871 14.7014293,9.19991162 14.8542377,9.19991162 Z M16.8095436,23.5504256 C16.5849964,23.7583151 16.3152991,23.8624227 16.0001003,23.8624227 C15.6850521,23.8624227 15.4153547,23.7583151 15.1909079,23.5504256 C14.9664611,23.342164 14.8542377,23.0919431 14.8542377,22.7999953 C14.8542377,22.507722 14.9666116,22.2575941 15.1909079,22.0495185 C15.4152042,21.8416291 15.6851022,21.7371959 16.0001003,21.7371959 C16.3153493,21.7371959 16.5850466,21.8416291 16.8095436,22.0495185 C17.0339402,22.2575941 17.1460633,22.507722 17.1460633,22.7999953 C17.1460633,23.0922687 17.0337897,23.3422105 16.8095436,23.5504256 Z M20.1252258,20.6750942 C20.1252258,20.7900405 20.079925,20.8900079 19.9890727,20.9739266 C19.8981201,21.0579848 19.7909636,21.0998511 19.6670011,21.0998511 L12.3334504,21.0998511 C12.2093374,21.0998511 12.1019301,21.0578453 12.0112283,20.9739266 C11.9205265,20.8900079 11.8751756,20.7900405 11.8751756,20.6750942 L11.8751756,11.3251384 C11.8751756,11.2100526 11.9204763,11.1103642 12.0112283,11.0263525 C12.1019802,10.9423873 12.2093374,10.9001023 12.3334504,10.9001023 L19.6666499,10.9001023 C19.7909636,10.9001023 19.8982204,10.9422012 19.9890727,11.0263525 C20.079925,11.1104108 20.1250251,11.2100526 20.1250251,11.3251384 L20.1250251,20.6750477 L20.1252258,20.6750477 L20.1252258,20.6750942 Z" id="Shape" fill="#9B3FD9" fill-rule="nonzero" mask="url(#mask-2)"></path>
                    </g>
                </g>
            </g>
        </g>
    </g>
</svg>