<?xml version="1.0" encoding="UTF-8"?>
<svg width="32px" height="32px" viewBox="0 0 32 32" version="1.1" xmlns="http://www.w3.org/2000/svg" xmlns:xlink="http://www.w3.org/1999/xlink">
    <!-- Generator: Sketch 55 (78076) - https://sketchapp.com -->
    <title>icon/verified-email@1.5x</title>
    <desc>Created with Sketch.</desc>
    <defs>
        <circle id="path-1" cx="16" cy="16" r="16"></circle>
    </defs>
    <g id="Minder-Profile" stroke="none" stroke-width="1" fill="none" fill-rule="evenodd">
        <g transform="translate(-34.000000, -1100.000000)" id="Certificates">
            <g transform="translate(0.000000, 956.000000)">
                <g id="Verified-Email" transform="translate(28.000000, 144.000000)">
                    <g id="icon/verified-email" transform="translate(6.000000, 0.000000)">
                        <mask id="mask-2" fill="white">
                            <use xlink:href="#path-1"></use>
                        </mask>
                        <use id="Base" fill="#F4F4F4" xlink:href="#path-1"></use>
                        <path d="M22.1606088,22 L9.83933678,22 C9.50218775,22 9.2098376,21.8866462 8.96149656,21.6628224 L13.2120526,17.3344995 C13.3183716,17.4122222 13.4167113,17.484843 13.5053831,17.5510307 C13.8235777,17.7896337 14.0815594,17.9757746 14.2797366,18.109176 C14.4777231,18.2428825 14.7413965,18.3791676 15.0707296,18.5183088 C15.4000626,18.6576441 15.7069009,18.7270484 15.9915713,18.7270484 L15.9999047,18.7270484 L16.0082381,18.7270484 C16.2928812,18.7270484 16.5997195,18.6576164 16.9290798,18.5183088 C17.2582222,18.3791676 17.5218956,18.2428825 17.7200728,18.109176 C17.9182772,17.9757746 18.176395,17.789606 18.4944262,17.5510307 C18.5877822,17.4822919 18.6866121,17.410004 18.7885738,17.3356641 L23.0383128,21.6628224 C22.7899445,21.8866462 22.497785,22 22.1606088,22 Z M9.34551421,14.6108478 C10.5308463,15.430999 11.4963507,16.1062414 12.2457039,16.6389044 L8.5,20.4526988 L8.5,13.869279 C8.74550876,14.1477555 9.02751024,14.3949821 9.34551421,14.6108478 Z M22.6629554,14.6108478 C22.9809593,14.3892146 23.2599379,14.1421544 23.5,13.869279 L23.5,20.4528652 L19.7557939,16.6404294 C20.5538131,16.0729673 21.5228306,15.3965603 22.6629554,14.6108478 Z M22.1606088,10 C22.5233299,10 22.8373034,10.1335401 23.1024474,10.4004816 C23.3672918,10.6677558 23.5,10.9886568 23.5,11.3636836 C23.5,11.8125513 23.3631251,12.2415376 23.0901107,12.6505041 C22.816606,13.0594705 22.4762979,13.4090427 22.0689685,13.6987215 C20.7145989,14.6558233 19.6925853,15.3783982 18.9986247,15.8693298 C18.6172487,16.138961 18.333586,16.3397424 18.1515582,16.4687073 C18.1245699,16.488034 18.0824127,16.518563 18.0263937,16.5594902 C17.9660718,16.6034397 17.8897367,16.6594511 17.7957543,16.728689 C17.6143801,16.8622568 17.4637252,16.9701758 17.343735,17.0526401 C17.2235269,17.134938 17.0785365,17.2272737 16.9083824,17.3295915 C16.738065,17.4319371 16.5776877,17.5086062 16.42706,17.5597097 C16.2763505,17.6107854 16.136834,17.6364065 16.0085377,17.6364065 L16.0002043,17.6364065 L15.9918708,17.6364065 C15.8635472,17.6364065 15.724058,17.6107854 15.5733758,17.5597097 C15.4227208,17.5086062 15.2622074,17.4317708 15.0920261,17.3295915 C14.9217086,17.2272737 14.7765276,17.1351321 14.6567008,17.0526401 C14.5367106,16.9701758 14.3860556,16.862229 14.2047086,16.728689 C14.1105357,16.6594511 14.0342006,16.6034674 13.9738787,16.5593515 C13.9178869,16.5185907 13.8757024,16.4878677 13.8488775,16.4687073 C13.6152153,16.301394 13.3322062,16.0997807 13.0040442,15.8669729 C12.6190461,15.5935707 12.1710301,15.2767458 11.6558565,14.913254 C10.7015178,14.2400634 10.1295083,13.835173 9.93982789,13.6987215 C9.59382801,13.4601184 9.26732723,13.1320913 8.96048893,12.7144735 C8.65365063,12.2966895 8.5001634,11.9089075 8.5001634,11.5510168 C8.5001634,11.1079444 8.61582349,10.738491 8.84752494,10.4430724 C9.07903576,10.1477925 9.40951261,10 9.83936401,10 L22.1606088,10 Z" id="Combined-Shape" fill="#9B3FD9" fill-rule="nonzero" mask="url(#mask-2)"></path>
                    </g>
                </g>
            </g>
        </g>
    </g>
</svg>